<?xml version="1.0" standalone="no"?>
<!DOCTYPE svg PUBLIC "-//W3C//DTD SVG 20010904//EN"
 "http://www.w3.org/TR/2001/REC-SVG-20010904/DTD/svg10.dtd">
<svg version="1.0" xmlns="http://www.w3.org/2000/svg"
 width="520.000000pt" height="520.000000pt" viewBox="0 0 520.000000 520.000000"
 preserveAspectRatio="xMidYMid meet">
<metadata>
Created by potrace 1.14, written by Peter Selinger 2001-2017
</metadata>
<g transform="translate(0.000000,520.000000) scale(0.100000,-0.100000)"
fill="#000000" stroke="none">
<path d="M2437 4889 c-20 -3 -40 -9 -44 -13 -9 -9 -15 -41 -28 -176 -4 -36 -9
-73 -11 -83 -1 -10 -4 -43 -5 -73 -3 -68 -14 -77 -117 -94 -59 -10 -76 -9 -89
1 -28 23 -108 151 -153 246 -25 50 -51 92 -57 92 -7 1 -88 -29 -179 -65 l-165
-67 5 -36 c3 -20 21 -101 39 -180 19 -79 34 -153 33 -165 -1 -15 -24 -37 -78
-73 l-76 -51 -75 61 c-251 208 -248 205 -266 191 -114 -90 -211 -173 -233
-198 l-26 -31 30 -55 c16 -30 66 -108 109 -173 l79 -118 -32 -47 c-17 -26 -47
-61 -65 -79 -38 -37 -20 -41 -233 45 -141 57 -147 59 -175 49 -43 -15 -183
-265 -172 -307 4 -17 45 -53 123 -110 165 -120 185 -138 180 -164 -2 -11 -14
-54 -27 -94 l-24 -72 -209 0 c-114 1 -210 -1 -213 -3 -5 -6 -9 -30 -23 -147
-6 -52 -14 -113 -16 -135 -14 -103 -20 -91 54 -115 37 -12 81 -28 97 -35 17
-7 53 -19 80 -26 67 -16 126 -47 132 -68 4 -15 19 -17 109 -18 l104 -1 1 31
c3 87 10 147 35 282 13 75 63 245 76 259 4 6 8 16 8 23 0 40 184 379 212 391
5 2 8 10 8 17 0 7 3 15 8 17 4 2 25 26 47 53 173 218 386 384 657 513 37 18
74 32 82 32 8 0 18 4 21 10 3 5 25 15 48 21 23 7 47 14 52 15 6 2 46 13 90 25
83 22 99 25 150 34 17 3 44 8 60 11 45 10 411 10 480 1 399 -54 770 -239 1050
-523 38 -40 77 -80 85 -90 8 -11 31 -39 51 -64 222 -275 368 -670 383 -1040 1
-12 20 -15 99 -17 53 -1 98 1 98 5 1 4 3 32 5 62 1 30 3 61 3 67 1 7 13 16 29
19 15 4 32 9 37 13 6 3 15 6 20 7 27 5 291 96 298 103 5 5 2 37 -7 72 -8 35
-18 80 -22 99 -4 19 -8 37 -9 40 -1 3 -9 39 -19 81 l-17 77 -157 -4 c-86 -3
-181 -6 -209 -7 l-53 -3 -30 94 c-16 52 -28 97 -26 101 3 4 67 54 143 112 156
118 163 124 163 138 0 10 -114 202 -168 284 -14 21 -30 36 -36 33 -112 -47
-359 -146 -367 -146 -13 0 -103 95 -120 126 -10 19 1 42 84 185 53 90 99 171
102 180 5 13 -28 42 -135 123 -77 58 -144 106 -148 106 -4 0 -27 -18 -52 -41
-79 -72 -222 -204 -235 -216 -10 -10 -27 -5 -82 23 -113 60 -114 60 -108 97 3
18 10 52 15 77 5 25 12 63 15 84 3 21 7 48 10 60 5 21 10 49 21 116 l6 35
-177 58 c-97 33 -178 57 -180 55 -2 -2 -33 -64 -70 -138 -104 -214 -111 -225
-131 -223 -11 1 -48 8 -84 14 -36 7 -73 12 -82 13 -10 0 -18 0 -18 1 0 1 -61
354 -65 374 -2 13 -7 26 -10 29 -8 8 -272 9 -318 1z"/>
<path d="M2259 4155 c0 0 -1 -299 -2 -665 l-2 -665 -660 -3 c-362 -1 -663 -6
-668 -11 -7 -7 -10 -275 -7 -653 l0 -76 628 -1 c345 0 645 -1 668 -1 l41 0 -1
-642 c-1 -354 1 -654 2 -669 l4 -25 366 0 367 1 0 662 c0 364 3 664 6 668 3 3
305 6 670 6 l664 1 -1 361 c-1 199 -2 365 -3 369 0 5 -301 9 -668 10 l-667 3
0 663 c0 445 -4 662 -11 663 -8 1 -723 5 -726 4z m-632 -1423 c2 -26 5 -74 7
-107 8 -119 18 -311 20 -362 1 -61 19 -54 25 10 1 4 40 7 87 7 82 0 88 2 140
36 61 41 96 46 122 17 9 -10 33 -29 52 -41 19 -12 30 -22 23 -22 -6 0 -32 16
-57 35 -26 19 -53 35 -61 35 -19 0 -65 -21 -65 -30 0 -20 -79 -43 -149 -44
l-74 -1 -13 -45 c-7 -25 -13 -46 -13 -48 0 -1 -3 -16 -6 -33 -8 -35 -18 -31
-21 9 -1 15 -4 59 -8 97 -5 59 -9 128 -20 297 -2 37 -16 47 -17 12 0 -16 -2
-40 -4 -54 -5 -34 -14 -122 -21 -195 -3 -33 -7 -61 -10 -64 -2 -2 -13 4 -24
14 -14 12 -34 18 -62 17 -51 -2 -104 14 -112 33 -7 19 3 19 24 0 9 -8 43 -16
77 -19 34 -2 66 -6 71 -10 12 -7 19 22 28 124 3 41 8 89 10 105 6 48 14 125
19 190 9 105 26 125 32 37z m815 37 c100 -26 153 -130 114 -223 -14 -34 -87
-96 -113 -96 -19 0 -16 -14 7 -35 11 -10 33 -38 48 -62 15 -23 30 -43 35 -43
4 0 7 -4 7 -10 0 -17 67 -104 97 -126 16 -12 39 -24 51 -29 35 -10 19 -18 -38
-17 -128 2 -116 -2 -160 57 -22 30 -40 59 -40 65 0 5 -4 10 -9 10 -5 0 -20 19
-34 43 -26 44 -109 127 -127 127 -5 0 -10 5 -10 10 0 6 10 10 21 10 41 0 100
23 129 51 59 57 61 159 4 216 -21 21 -93 54 -112 52 -21 -3 -42 2 -38 9 6 11
118 5 168 -9z m468 11 c22 -1 20 -3 -13 -15 -52 -19 -105 -61 -215 -172 l-93
-93 23 -23 c13 -14 44 -48 70 -78 96 -110 105 -119 129 -120 20 0 21 -1 6 -8
-30 -11 70 -106 131 -125 l47 -15 -106 0 -105 -1 -41 48 c-23 26 -51 58 -63
72 -103 119 -127 146 -142 159 -28 25 -21 44 35 98 49 48 111 114 149 158 9
11 19 33 22 48 4 23 0 31 -26 47 l-32 19 75 3 c41 2 85 2 99 1 14 -1 36 -2 50
-3z m446 -61 c9 -187 25 -427 29 -468 6 -44 15 -53 15 -13 0 17 5 34 11 38 6
3 47 6 92 5 75 -1 84 1 123 29 76 55 99 55 152 4 25 -25 11 -25 -19 0 -41 34
-61 33 -116 -9 -48 -36 -58 -39 -158 -35 l-60 2 -19 -81 c-10 -45 -21 -79 -25
-76 -4 2 -9 26 -10 52 -1 26 -4 64 -6 83 -2 19 -6 82 -10 140 -7 126 -14 203
-21 209 -2 2 -4 -9 -5 -25 -1 -33 -5 -80 -13 -144 -3 -25 -8 -67 -10 -95 -3
-27 -7 -59 -10 -70 -4 -20 -26 -22 -38 -3 -3 6 -28 11 -54 10 -31 -2 -61 5
-86 18 -37 19 -40 19 -65 3 -26 -17 -143 -29 -143 -15 0 4 27 8 60 8 40 1 65
7 75 18 21 20 53 21 76 0 11 -9 37 -16 71 -16 29 -1 61 -5 71 -10 12 -6 17 -5
18 4 0 7 2 20 3 28 2 8 7 51 10 95 4 44 9 96 11 115 2 19 7 69 10 110 4 41 9
84 10 95 2 11 4 28 4 38 1 10 6 17 13 15 6 -2 12 -28 14 -59z m-2029 -425
c-26 -22 -37 -24 -133 -24 -57 0 -104 3 -104 8 0 4 48 8 106 8 94 2 107 4 126
23 11 12 23 19 27 16 3 -4 -7 -18 -22 -31z m-247 -14 c0 -5 -5 -10 -11 -10 -5
0 -7 5 -4 10 3 6 8 10 11 10 2 0 4 -4 4 -10z m1820 0 c0 -5 -10 -10 -22 -9
-22 0 -22 1 -3 9 11 5 21 9 23 9 1 1 2 -3 2 -9z m935 0 c13 -6 15 -9 5 -9 -8
0 -22 4 -30 9 -18 12 -2 12 25 0z m-1688 -6 c-3 -3 -12 -4 -19 -1 -8 3 -5 6 6
6 11 1 17 -2 13 -5z"/>
<path d="M1600 2600 c0 -5 5 -10 11 -10 5 0 7 5 4 10 -3 6 -8 10 -11 10 -2 0
-4 -4 -4 -10z"/>
<path d="M597 2423 c-2 -1 -96 -9 -154 -12 -7 -1 -13 -10 -13 -22 0 -18 5 -20
52 -18 40 2 54 0 55 -11 4 -21 -5 -31 -58 -65 -38 -25 -44 -34 -40 -53 l6 -24
53 36 c52 35 53 35 72 16 26 -26 80 -26 109 -1 19 16 22 28 20 80 -1 33 -5 64
-8 70 -5 7 -87 11 -94 4z m54 -55 c6 -53 -9 -81 -41 -75 -14 2 -33 64 -24 79
8 13 64 9 65 -4z"/>
<path d="M4596 2423 c-30 -8 -47 -29 -53 -68 -7 -43 15 -80 53 -88 47 -9 74 9
97 63 11 27 27 52 35 55 42 16 56 -62 15 -80 -14 -6 -21 -16 -19 -30 2 -11 6
-19 9 -17 4 1 13 2 21 2 30 0 57 35 61 79 3 36 -1 47 -22 67 -31 29 -81 32
-110 7 -10 -10 -26 -36 -35 -58 -10 -25 -23 -41 -36 -43 -30 -5 -34 32 -6 63
13 14 21 32 18 40 -4 8 -7 14 -8 14 0 -1 -10 -4 -20 -6z"/>
<path d="M4757 2213 c-2 -5 -5 -26 -6 -48 -2 -22 -4 -41 -6 -43 -7 -7 -121 1
-181 12 -28 6 -48 -8 -41 -28 4 -10 19 -16 39 -17 18 0 42 -2 53 -5 11 -2 55
-7 98 -10 l77 -7 1 34 c0 19 2 53 5 77 4 37 3 42 -15 42 -11 0 -22 -3 -24 -7z"/>
<path d="M645 2129 c-16 -5 -41 -11 -54 -14 -114 -21 -132 -28 -129 -49 2 -12
8 -20 13 -20 6 1 26 4 45 8 24 4 42 1 55 -7 17 -13 15 -17 -33 -53 -47 -36
-64 -69 -45 -87 3 -4 29 12 57 36 91 76 79 72 141 47 31 -12 58 -21 60 -18 13
13 -27 53 -72 72 -29 12 -55 25 -58 28 -4 3 18 12 48 18 45 11 54 16 50 31 -6
21 -29 23 -78 8z"/>
<path d="M4687 2023 c-1 -1 -38 -4 -82 -7 -102 -8 -115 -13 -115 -39 0 -17 16
-31 68 -59 37 -21 90 -51 119 -67 43 -26 52 -28 57 -15 4 10 -5 25 -23 41 -26
23 -28 28 -18 64 6 27 15 39 27 39 31 0 50 11 50 30 0 15 -7 18 -41 17 -22 -1
-41 -3 -42 -4z m-37 -66 c0 -36 -9 -38 -54 -14 l-41 21 40 7 c22 3 43 7 48 8
4 0 7 -9 7 -22z"/>
<path d="M666 1814 c-66 -24 -121 -46 -123 -48 -2 -2 -1 -10 2 -19 7 -17 23
-14 113 22 83 33 83 25 0 -24 -84 -49 -91 -56 -82 -79 4 -12 15 -14 42 -10 86
13 98 15 125 20 40 8 33 -3 -10 -16 -21 -7 -51 -18 -68 -25 -16 -7 -38 -16
-48 -19 -26 -8 -15 -31 14 -30 27 1 197 62 216 77 9 6 10 15 3 27 -5 9 -6 21
-2 25 7 8 -114 -1 -155 -12 -37 -9 -26 10 20 35 23 12 55 33 71 45 27 22 28
25 15 49 l-14 26 -119 -44z"/>
<path d="M4500 1853 c-61 -18 -90 -66 -70 -118 34 -90 209 -121 251 -44 25 48
0 119 -42 119 -25 0 -28 -22 -7 -44 22 -24 23 -40 2 -60 -40 -41 -164 4 -164
59 0 26 18 45 42 45 11 0 18 7 18 19 0 23 -9 30 -30 24z"/>
<path d="M4377 1660 c-4 -16 1 -23 19 -30 13 -5 45 -19 72 -31 138 -62 148
-65 156 -44 5 13 -17 27 -97 64 -137 65 -143 66 -150 41z"/>
<path d="M758 1580 c-59 -30 -110 -58 -113 -61 -5 -5 46 -120 59 -136 1 -1 12
0 24 3 l21 6 -29 57 -28 57 31 12 c29 11 34 10 49 -10 10 -13 18 -27 18 -33 1
-26 17 -37 38 -26 21 11 21 11 -4 55 l-25 44 22 16 c27 19 40 10 59 -38 14
-37 31 -49 55 -40 12 5 8 19 -20 74 -19 38 -38 70 -42 72 -5 2 -56 -21 -115
-52z"/>
<path d="M4343 1585 c-12 -27 -11 -28 87 -115 l35 -31 -30 7 c-16 4 -55 16
-85 26 l-55 18 -17 -22 c-10 -13 -18 -25 -18 -28 0 -8 213 -130 227 -130 28 0
16 27 -24 52 -24 16 -47 28 -51 28 -4 0 -18 10 -32 23 -14 12 -21 19 -15 15 6
-4 22 -9 35 -12 14 -2 45 -12 69 -20 55 -20 67 -20 75 0 4 11 -6 27 -31 49
-21 18 -54 47 -73 65 l-35 32 55 -28 c30 -16 57 -32 60 -35 3 -3 16 -12 29
-19 19 -10 25 -10 32 1 13 22 11 26 -23 43 -18 9 -51 27 -73 40 -60 37 -115
66 -123 66 -4 0 -12 -11 -19 -25z"/>
<path d="M919 1447 c-19 -12 -67 -43 -106 -67 -75 -46 -84 -58 -58 -80 8 -7
15 -18 15 -24 0 -22 47 -57 76 -58 43 -1 96 25 138 66 44 44 46 78 11 130 -14
20 -25 41 -25 46 0 16 -15 12 -51 -13z m45 -69 c12 -27 12 -35 0 -53 -17 -26
-84 -65 -112 -65 -19 0 -52 33 -52 52 0 9 129 96 143 97 4 1 14 -13 21 -31z"/>
<path d="M4233 1395 c-7 -7 -26 -36 -44 -65 -31 -50 -31 -51 -12 -69 11 -10
30 -24 43 -31 13 -7 50 -32 83 -56 32 -24 62 -44 66 -44 3 0 17 17 31 38 14
20 27 39 30 42 27 26 32 41 20 55 -19 22 -24 19 -56 -30 -32 -51 -42 -54 -72
-22 l-21 22 30 40 c28 37 29 40 12 53 -15 11 -20 10 -30 -5 -51 -72 -49 -70
-78 -49 -18 13 -18 15 -2 40 50 77 48 71 29 82 -13 8 -20 8 -29 -1z"/>
<path d="M1009 1255 c-137 -106 -143 -113 -130 -129 11 -13 23 -7 89 44 134
104 133 103 119 121 -10 13 -20 9 -78 -36z"/>
<path d="M4113 1235 c-10 -11 -5 -20 29 -48 l41 -34 -24 -32 c-27 -37 -33 -38
-62 -10 -35 33 -54 40 -65 26 -14 -16 -9 -23 58 -77 30 -25 66 -55 80 -68 38
-36 53 -42 67 -27 10 11 5 20 -27 48 -46 39 -49 53 -16 85 l24 22 43 -35 c38
-32 44 -35 58 -21 8 9 13 17 10 19 -2 2 -47 40 -100 85 -54 45 -99 82 -100 82
-2 -1 -10 -7 -16 -15z"/>
<path d="M1075 1191 c-94 -43 -137 -120 -103 -184 22 -43 68 -56 111 -31 29
17 11 44 -24 37 -33 -6 -59 10 -59 38 0 28 67 97 101 104 39 9 59 -9 59 -51 0
-18 5 -36 12 -40 15 -10 38 24 38 55 -1 35 -20 58 -62 75 -30 13 -38 13 -73
-3z"/>
<path d="M3930 1045 c-47 -50 -20 -138 62 -197 72 -51 167 -7 154 70 -11 70
-49 66 -50 -5 -1 -35 -3 -38 -33 -41 -26 -3 -39 4 -72 39 -48 49 -56 94 -18
108 12 5 28 6 35 4 21 -8 44 17 31 33 -19 24 -82 17 -109 -11z"/>
<path d="M1275 1022 c-16 -10 -68 -38 -115 -62 -47 -25 -87 -46 -89 -47 -3 -2
2 -10 10 -18 12 -12 18 -13 40 -1 25 12 29 11 59 -14 31 -27 32 -30 21 -59
-11 -26 -11 -33 3 -46 14 -15 21 -6 76 105 48 98 58 126 50 141 -13 23 -17 24
-55 1z m-1 -64 c-4 -7 -16 -25 -26 -41 l-20 -27 -18 22 c-18 22 -17 23 19 39
44 21 54 23 45 7z"/>
<path d="M1384 903 c-41 -55 -55 -72 -91 -113 -18 -21 -33 -42 -33 -48 0 -12
98 -92 112 -92 5 0 11 7 15 16 4 10 -7 26 -31 45 -41 35 -42 38 -18 65 9 10
38 46 64 79 35 44 44 62 36 72 -16 20 -23 16 -54 -24z"/>
<path d="M3692 854 c-33 -23 -29 -68 8 -96 24 -17 30 -28 26 -49 -4 -26 25
-88 41 -90 5 0 17 -2 28 -5 28 -5 64 16 81 47 7 15 21 26 31 25 12 0 19 7 21
22 3 17 -2 22 -18 22 -12 0 -24 9 -30 24 -5 13 -13 26 -17 29 -15 9 -36 -10
-28 -24 6 -9 3 -11 -9 -6 -10 4 -22 7 -27 7 -5 0 -9 16 -9 35 0 38 -28 75 -58
75 -10 0 -28 -7 -40 -16z m60 -49 c-5 -28 -9 -30 -27 -15 -23 19 -19 42 8 38
16 -2 21 -9 19 -23z m82 -98 c3 4 6 -3 6 -14 0 -42 -47 -52 -66 -14 -19 38 -8
54 26 36 15 -8 30 -11 34 -8z"/>
<path d="M1605 769 c-11 -17 -30 -48 -43 -68 -12 -20 -28 -47 -35 -61 -6 -14
-18 -31 -25 -39 -16 -16 -11 -35 10 -39 18 -4 138 186 138 218 0 30 -23 24
-45 -11z"/>
<path d="M1631 641 c-51 -100 -58 -120 -45 -125 18 -7 36 12 55 59 7 17 20 40
30 53 16 21 17 19 15 -69 -2 -80 0 -91 17 -100 10 -6 20 -9 22 -7 1 2 28 52
59 113 49 96 54 111 41 124 -8 8 -16 13 -17 10 -2 -2 -19 -36 -38 -76 -19 -39
-37 -70 -39 -68 -2 3 -3 45 -3 95 1 78 -1 91 -17 100 -17 9 -26 -3 -80 -109z"/>
<path d="M3475 724 c-22 -7 -41 -14 -41 -14 -1 0 -5 -8 -9 -17 -16 -42 -14
-61 10 -87 21 -23 33 -27 73 -26 79 3 82 2 82 -25 0 -36 -39 -53 -72 -31 -22
14 -27 15 -37 2 -10 -11 -8 -18 10 -35 30 -28 50 -30 100 -10 45 18 57 67 29
119 -16 29 -46 38 -107 33 -51 -5 -53 -5 -53 20 0 29 32 42 62 26 26 -14 54 7
36 28 -22 27 -42 31 -83 17z"/>
<path d="M3302 651 c-40 -15 -73 -30 -73 -34 1 -4 1 -14 1 -23 0 -15 10 -14
56 3 6 2 27 -39 49 -96 21 -56 41 -101 45 -101 37 0 37 12 -2 112 -21 55 -37
102 -36 103 2 1 15 9 31 17 23 12 25 16 15 30 -12 15 -19 14 -86 -11z"/>
<path d="M1900 653 c-25 -9 -50 -46 -50 -76 0 -19 13 -41 40 -69 45 -47 46
-51 26 -68 -25 -20 -60 -8 -71 25 -19 58 -47 61 -43 3 3 -45 32 -75 81 -84 22
-3 35 2 57 25 47 46 44 79 -11 135 -42 41 -45 59 -12 64 25 4 54 -23 47 -43
-5 -11 1 -15 21 -15 24 0 26 3 23 32 -4 44 -67 85 -108 71z"/>
<path d="M2036 594 c-4 -9 -5 -18 -4 -18 2 -1 16 -7 31 -14 22 -9 27 -17 22
-30 -4 -9 -18 -55 -31 -102 -22 -81 -21 -99 8 -100 6 0 27 61 53 160 12 43 14
45 47 42 31 -3 35 -1 34 19 -1 18 -12 25 -66 40 -81 23 -86 23 -94 3z"/>
<path d="M3168 605 c-3 -3 5 -41 18 -83 13 -42 24 -79 24 -82 0 -3 -31 28 -68
68 -52 54 -73 71 -86 66 -17 -7 -18 -14 -2 -69 3 -11 14 -51 25 -90 28 -103
30 -106 51 -95 17 9 17 13 3 57 -35 114 -34 105 -9 86 13 -10 36 -34 51 -54
34 -45 71 -67 86 -52 8 8 5 31 -11 85 -12 40 -24 82 -26 93 -11 57 -37 89 -56
70z"/>
<path d="M2219 547 c-1 -25 -2 -32 -28 -149 -10 -48 -16 -89 -13 -92 10 -11
42 -6 43 7 0 6 3 21 5 32 2 11 5 28 6 38 1 9 10 17 20 17 19 0 37 -27 44 -67
8 -41 23 -63 44 -63 11 0 20 3 20 6 0 15 -24 90 -32 99 -12 14 -10 25 5 25 20
0 47 33 53 64 9 52 -23 80 -105 92 -20 3 -42 7 -48 9 -8 3 -13 -5 -14 -18z
m102 -47 c23 -13 25 -46 3 -58 -8 -4 -28 -6 -45 -4 -27 4 -29 8 -27 38 2 28 6
34 26 34 13 0 32 -5 43 -10z"/>
<path d="M2922 548 c-9 -4 -30 -7 -46 -7 -31 -1 -31 -5 -11 -101 3 -14 7 -36
10 -50 3 -14 8 -38 11 -55 3 -16 7 -37 9 -45 3 -17 25 -16 113 1 41 8 52 14
48 26 -3 8 -6 18 -6 23 0 4 -25 2 -55 -5 -60 -14 -60 -15 -70 33 -5 27 -4 32
12 33 29 1 64 9 79 17 12 6 12 11 2 25 -11 14 -20 15 -57 6 -34 -8 -46 -7 -52
3 -20 31 -9 45 46 57 43 10 55 17 55 32 0 16 -6 19 -35 16 -20 -1 -43 -5 -53
-9z"/>
<path d="M2763 532 c-6 -4 -14 -32 -17 -62 -15 -122 -16 -123 -45 -30 -27 88
-27 87 -81 81 -10 -1 -7 -72 8 -206 5 -44 11 -60 22 -60 11 0 15 13 16 55 0
30 -2 69 -6 87 -5 18 -4 33 0 33 4 0 18 -36 30 -81 33 -113 69 -121 77 -17 8
115 22 157 24 72 1 -27 2 -53 4 -59 1 -5 3 -25 3 -42 2 -26 6 -33 22 -33 22 0
22 -16 5 180 -4 41 -9 77 -11 79 -8 9 -39 10 -51 3z"/>
<path d="M2419 493 c0 -21 -3 -67 -6 -101 -8 -101 17 -137 91 -133 57 3 73 30
81 137 4 44 8 89 10 102 3 18 -1 22 -21 22 -21 0 -24 -4 -25 -42 -1 -42 -4
-71 -14 -135 -7 -42 -41 -56 -69 -28 -10 11 -14 29 -11 63 3 26 7 71 9 100 5
50 4 52 -20 52 -21 0 -24 -5 -25 -37z"/>
</g>
</svg>
